<?xml version="1.0" encoding="utf-8"?>
<!-- Generator: Adobe Illustrator 21.1.0, SVG Export Plug-In . SVG Version: 6.00 Build 0)  -->
<svg version="1.1" id="Layer_1" xmlns="http://www.w3.org/2000/svg" xmlns:xlink="http://www.w3.org/1999/xlink" x="0px" y="0px"
	 viewBox="0 0 511 511" style="enable-background:new 0 0 511 511;" xml:space="preserve">
<style type="text/css">
	.st0{fill:#000063;}
</style>
<path class="st0" d="M511,130.5v359.6c0,11-8.9,19.9-19.9,19.9H20.9C9.9,510,1,501.1,1,490.1V19.9C1,8.9,9.9,0,20.9,0
	s19.9,8.9,19.9,19.9v268l27.5-28c7.7-7.9,20.3-8,28.2-0.3c7.9,7.7,8,20.3,0.3,28.2l-55.9,57.1v125.3h38.8v-98.6
	c0-11,8.9-19.9,19.9-19.9s19.9,8.9,19.9,19.9v98.6h37.9V288c0-11.1,9-20,20.1-19.9c10.9,0.1,19.7,9,19.7,19.9v182.1h37.9V287.9
	c0-10.9,8.8-19.8,19.7-19.9c11.1-0.1,20.1,8.8,20.1,19.9v182.3h38.8V282.9c0-11,8.9-19.9,19.8-19.9c11,0,20,8.9,20,19.9v187.3h38.8
	v-259c0-11,8.9-19.9,19.8-19.9c11,0,20,8.9,20,19.9v259h38.8V130.5c0-11,8.9-19.9,19.8-19.9C502,110.5,511,119.5,511,130.5z
	 M161.2,220.6l29.2-29.4c0.1-0.1,0.1-0.1,0.2-0.2c4.1-4.2,9.5-6.8,14.3-6.8h0.1c4.6,0,9.8,2.5,13.9,6.6l23.4,23.4
	c11.2,11.2,25.8,17.5,41.1,17.8c0.3,0,0.7,0,1,0c15.6,0,31-6.5,42.3-17.8c0,0,0.1-0.1,0.1-0.1L505.3,32.9c7.7-7.8,7.6-20.5-0.2-28.2
	C497.2-3,484.6-2.9,476.9,5L298.6,186.1c-3.9,3.9-9,6.1-14.1,6.1c-0.1,0-0.2,0-0.3,0c-4.9-0.1-9.9-2.3-13.7-6.2l-23.4-23.4
	c-11.5-11.5-26.7-18.1-41.8-18.2c-0.1,0-0.3,0-0.4,0c-15.6,0-31.2,6.8-42.8,18.8l-29.1,29.3c-7.8,7.8-7.7,20.4,0.1,28.2
	C140.8,228.5,153.4,228.4,161.2,220.6z"/>
</svg>
