<?xml version="1.0" encoding="utf-8"?>
<!-- Generator: Adobe Illustrator 21.1.0, SVG Export Plug-In . SVG Version: 6.00 Build 0)  -->
<svg version="1.1" id="Layer_1" xmlns="http://www.w3.org/2000/svg" xmlns:xlink="http://www.w3.org/1999/xlink" x="0px" y="0px"
	 viewBox="0 0 511 511" style="enable-background:new 0 0 511 511;" xml:space="preserve">
<style type="text/css">
	.st0{fill:#000063;}
</style>
<path class="st0" d="M175.7,186.6l68.9,25.5c4.5,1.6,9.1,2.5,13.8,2.5c4.7,0,9.4-0.8,13.8-2.5l68.9-25.5
	c15.6-5.8,26.1-20.8,26.1-37.5V66.4c0-16.7-10.5-31.8-26.1-37.5L272.2,3.5c-8.9-3.3-18.7-3.3-27.6,0l-68.9,25.5
	c-15.6,5.8-26.1,20.8-26.1,37.5v82.7C149.6,165.8,160.1,180.9,175.7,186.6z M327.3,149.2l-48.9,18.1v-68l48.9-17.8L327.3,149.2z
	 M258.4,40.9L290,52.6l-31.5,11.4L227,52.5L258.4,40.9z M189.6,81.3l48.9,18v68l-48.9-18.1V81.3z M406.1,106.8c0-11,8.9-20,20-20
	H452c11,0,20,8.9,20,20v117.8c0,11-8.9,20-20,20s-20-8.9-20-20v-97.8h-6C415.1,126.7,406.1,117.8,406.1,106.8z M504.8,438.1L472,378
	v-52.7c0-11-8.9-20-20-20c-11,0-20,8.9-20,20v36.9H80.8V126.7h8c11,0,20-8.9,20-20c0-11-8.9-20-20-20H60.8c-11,0-20,8.9-20,20v267.6
	L6,438.1c-8.4,15.3-8,33.6,1,48.8c9.3,15.7,25.7,25,43.8,25H461c17.8,0,33.9-9.2,43-24.5C513,472.1,513.4,453.7,504.8,438.1z
	 M469.6,467.1c-0.9,1.5-3.5,4.9-8.7,4.9H324.2c-0.5-10.5-9.2-18.9-19.9-18.9h-98.8c-10.7,0-19.4,8.4-19.9,18.9H50.9
	c-5.8,0-8.7-4.2-9.5-5.5c-1-1.8-2.5-5.3-0.3-9.3l30.1-55.1h368.5l30.1,55.1C472.2,461.6,470.7,465.3,469.6,467.1z"/>
</svg>
