<?xml version="1.0" encoding="utf-8"?>
<!-- Generator: Adobe Illustrator 21.1.0, SVG Export Plug-In . SVG Version: 6.00 Build 0)  -->
<svg version="1.1" id="Layer_1" xmlns="http://www.w3.org/2000/svg" xmlns:xlink="http://www.w3.org/1999/xlink" x="0px" y="0px"
	 viewBox="0 0 512 512" style="enable-background:new 0 0 512 512;" xml:space="preserve">
<style type="text/css">
	.st0{fill:#000063;}
</style>
<path class="st0" d="M451,193.3c0-51.8-20.3-100.4-57.1-137C357,19.6,308-0.3,256.1,0c-0.4,0-0.9,0-1.3,0
	c-51.8,0-100.7,20.2-137.6,56.8C80.3,93.4,60,141.9,60,193.3c0,77.4,44.4,119,76.8,149.5c22.4,21,36.2,34.7,36.2,50.3v59
	c0,33.1,26.9,60,60,60h45c33.1,0,60-26.9,60-60v-64.1c2.3-11.5,12.2-22.9,28.7-38.6c8-7.6,8.3-20.3,0.7-28.3s-20.3-8.3-28.3-0.7
	c-0.4,0.3-0.7,0.7-1.1,1v-74c0-14-4.6-28.7-13.2-42.5l-52.9-85.4c-3.6-5.9-10.1-9.5-17-9.5c0,0,0,0,0,0c-6.9,0-13.4,3.6-17,9.5
	l-52.6,85.4c-8,12.8-12.2,27.4-12.2,42.5v74.5c-2.9-2.8-5.8-5.5-8.8-8.3c-31.6-29.6-64.2-60.2-64.2-120.3c0-40.7,16.1-79,45.3-108.1
	C174.7,56,213.5,40,254.8,40c0.4,0,0.8,0,1.2,0c0.1,0,0.2,0,0.3,0c0.4,0,0.8,0,1.2,0c40.8,0,79.3,15.8,108.3,44.7
	c28.2,28,44.2,64.9,45.2,104.4c-0.3,1.4-0.4,2.8-0.4,4.2c0,23.1-4.6,43.2-14.2,61.4c-5.1,9.8-1.4,21.9,8.4,27
	c9.8,5.1,21.9,1.4,27-8.4c12-22.8,18.1-47.5,18.7-75.4C450.8,196.4,451,194.9,451,193.3z M244.4,185.1h21.1l24,38.8h-69L244.4,185.1
	z M298,263.9v120.8c-0.3,2.4-0.4,4.8-0.5,7.3H213V263.9H298z M278,472h-45c-11,0-20-9-20-20v-20h85v20C298,463,289,472,278,472z
	 M20,215.4c-11,0-20-9-20-20c0-11,9-20,20-20s20,9,20,20C40,206.5,31,215.4,20,215.4z M512,195.4c0,11-9,20-20,20s-20-9-20-20
	c0-11,9-20,20-20S512,184.4,512,195.4z M447,84c0-11,9-20,20-20s20,9,20,20c0,11-9,20-20,20S447,95,447,84z M25,84c0-11,9-20,20-20
	s20,9,20,20c0,11-9,20-20,20S25,95,25,84z M487,303c0,11-9,20-20,20s-20-9-20-20s9-20,20-20S487,292,487,303z M65,303
	c0,11-9,20-20,20s-20-9-20-20s9-20,20-20S65,292,65,303z"/>
</svg>
