<?xml version="1.0" encoding="utf-8"?>
<!-- Generator: Adobe Illustrator 21.1.0, SVG Export Plug-In . SVG Version: 6.00 Build 0)  -->
<svg version="1.1" id="Capa_1" xmlns="http://www.w3.org/2000/svg" xmlns:xlink="http://www.w3.org/1999/xlink" x="0px" y="0px"
	 viewBox="0 0 512 512" style="enable-background:new 0 0 512 512;" xml:space="preserve">
<style type="text/css">
	.st0{fill:#000063;}
</style>
<g>
	<g>
		<g>
			<path class="st0" d="M368,427H90.6c5.9-16.7,14.2-31.5,24.3-45H291c11,0,20-9,20-20s-9-20-20-20H154c32-26,71.2-46.9,111.4-68.4
				c49.4-26.4,100.5-53.6,139.3-91.6C450,137.6,472,84.6,472,20c0-11-9-20-20-20s-20,9-20,20c0,9.1-0.5,17.7-1.5,26H144
				c-11,0-20,9-20,20s9,20,20,20h277c-6.1,16.7-14.4,31.5-24.7,45H224c-11,0-20,9-20,20s9,20,20,20h132.8
				c-29.2,23.5-64.4,42.9-100.8,62.3C168.7,186.7,80,137.4,80,20C80,9,71,0,60,0S40,9,40,20c0,63.7,21.3,116.1,65.2,160
				c31.2,31.3,70.7,55.2,108.6,76c-38.6,21.2-76.3,44.3-106.6,74C62,374.4,40,427.4,40,492c0,11,9,20,20,20s20-9,20-20
				c0-8.7,0.5-17,1.4-25H368c11,0,20-9,20-20S379,427,368,427z"/>
			<path class="st0" d="M344.8,283.4c-9.3-6-21.7-3.2-27.6,6.1c-6,9.3-3.2,21.7,6.1,27.6C377,351.5,432,399.2,432,492
				c0,11,9,20,20,20s20-9,20-20C472,379.3,404,321.3,344.8,283.4z"/>
		</g>
	</g>
</g>
</svg>
