<?xml version="1.0" encoding="utf-8"?>
<!-- Generator: Adobe Illustrator 21.1.0, SVG Export Plug-In . SVG Version: 6.00 Build 0)  -->
<svg version="1.1" id="Capa_1" xmlns="http://www.w3.org/2000/svg" xmlns:xlink="http://www.w3.org/1999/xlink" x="0px" y="0px"
	 viewBox="0 0 480 480" style="enable-background:new 0 0 480 480;" xml:space="preserve">
<style type="text/css">
	.st0{fill:#8A8AC4;}
</style>
<g>
	<g>
		<g>
			<path class="st0" d="M308.9,307.8c-12.8,39.6-19.5,80.9-20,122.5v19.3h14v-19.3c0.4-40.2,7-80.1,19.3-118.3L308.9,307.8z"/>
		</g>
	</g>
	<g>
		<g>
			<path class="st0" d="M142.3,400.6h-41.9c-11.6,0-21-9.4-21-21v-21h27.9v-14H79.4v-21c0-3.9-3.1-7-7-7H48.2
				c31.2-70.7,31.2-71.5,31.2-73.3c0.1-61.1,45.2-112.7,105.7-121.1l-1.9-13.8c-66.9,9.3-117,66.1-117.8,133.7
				c-2.9,7.2-21.7,50.2-34.3,78.8c-1.5,3.5,0.1,7.7,3.6,9.2c0.9,0.4,1.8,0.6,2.8,0.6h27.9v48.9c0,19.3,15.6,34.9,34.9,34.9h34.9
				v34.9h14v-41.9C149.2,403.8,146.1,400.6,142.3,400.6z"/>
		</g>
	</g>
	<g>
		<g>
			<path class="st0" d="M441.9,96.8c-13.2-21.5-38.6-32.1-63.1-26.2c-9.7-30.3-42.1-47-72.4-37.3c-17.7,5.7-31.6,19.6-37.3,37.3
				c-24.5-5.9-50,4.7-63.2,26.2c-12.6,21.4-9.3,48.6,8.1,66.4c-17.4,17.8-20.7,45-8.1,66.4c13.2,21.5,38.6,32.1,63.1,26.2
				c9.7,30.3,42.1,47,72.4,37.3c17.7-5.7,31.6-19.6,37.3-37.3c24.5,5.9,50-4.7,63.2-26.2c12.6-21.4,9.3-48.6-8.1-66.4
				C451.2,145.4,454.5,118.2,441.9,96.8z M429.8,222.4c-11.2,18.2-33.8,25.8-53.7,17.9c-3.6-1.4-7.6,0.4-9,4c-0.2,0.5-0.3,1-0.4,1.5
				c-4.1,23.7-26.7,39.5-50.3,35.3c-18.1-3.2-32.2-17.3-35.3-35.3c-0.6-3.8-4.1-6.5-7.9-5.9c-0.5,0.1-1,0.2-1.5,0.4
				c-19.9,7.8-42.5,0.3-53.7-17.9c-10.5-18-5.9-41.1,10.8-53.7l0,0c3.1-2.3,3.7-6.7,1.3-9.8c-0.4-0.5-0.8-0.9-1.3-1.3
				c-16.7-12.6-21.3-35.7-10.8-53.7C229,85.7,251.6,78.1,271.5,86c3.6,1.4,7.6-0.4,9-4c0.2-0.5,0.3-1,0.4-1.5
				c4.1-23.7,26.7-39.5,50.3-35.3c18.1,3.2,32.2,17.3,35.3,35.3c0.6,3.8,4.1,6.5,7.9,5.9c0.5-0.1,1-0.2,1.5-0.4
				c19.9-7.8,42.5-0.2,53.7,17.9c10.6,18,5.9,41.1-10.7,53.7c-3.1,2.3-3.7,6.7-1.3,9.8c0.4,0.5,0.8,0.9,1.3,1.3
				C435.8,181.3,440.4,204.4,429.8,222.4z"/>
		</g>
	</g>
	<g>
		<g>
			<path class="st0" d="M323.8,100.3c-19.3,0-34.9,15.6-34.9,34.9v7h14v-7c0-11.6,9.4-21,21-21s21,9.4,21,21
				c0,7.1-2.8,13.9-7.8,18.9l-4.1,4.1c-10.2,10.3-16,24.2-16,38.7v8.2h14v-8.2c0-10.8,4.3-21.1,11.9-28.8l4.1-4.1
				c7.6-7.7,11.9-18,11.9-28.8C358.8,116,343.1,100.3,323.8,100.3z"/>
		</g>
	</g>
	<g>
		<g>
			<rect x="316.9" y="219.1" class="st0" width="14" height="14"/>
		</g>
	</g>
	<g>
		<g>
			<path class="st0" d="M142.3,226c-15.4,0-27.9,12.5-27.9,27.9c0,15.4,12.5,27.9,27.9,27.9s27.9-12.5,27.9-27.9
				S157.7,226,142.3,226z M142.3,267.9c-7.7,0-14-6.3-14-14s6.3-14,14-14c7.7,0,14,6.3,14,14C156.2,261.7,150,267.9,142.3,267.9z"/>
		</g>
	</g>
</g>
</svg>
