<?xml version="1.0" encoding="utf-8"?>
<!-- Generator: Adobe Illustrator 21.1.0, SVG Export Plug-In . SVG Version: 6.00 Build 0)  -->
<svg version="1.1" id="Layer_1" xmlns="http://www.w3.org/2000/svg" xmlns:xlink="http://www.w3.org/1999/xlink" x="0px" y="0px"
	 viewBox="0 0 512 512" style="enable-background:new 0 0 512 512;" xml:space="preserve">
<style type="text/css">
	.st0{fill:#000063;}
</style>
<path class="st0" d="M472,120h20c11,0,20-9,20-20V20c0-11-9-20-20-20h-80c-11,0-20,9-20,20v20H120V20c0-11-9-20-20-20H20
	C9,0,0,9,0,20v80c0,11,9,20,20,20h20v272H20c-11,0-20,9-20,20v80c0,11,9,20,20,20h80c11,0,20-9,20-20v-20h272v20c0,11,9,20,20,20h80
	c11,0,20-9,20-20v-80c0-11-9-20-20-20h-80c-11,0-20,9-20,20v20h-50v-90h110c11,0,20-9,20-20c0-1.6-0.2-3.1-0.5-4.5
	c0.3-1.4,0.5-2.9,0.5-4.5V120z M432,432h40v40h-40V432z M432,40h40v40h-40V40z M412,120h20v50h-90V80h50v20C392,111,401,120,412,120
	z M80,210h90v92H80V210z M210,210h92v92h-92V210z M210,170V80h92v90H210z M40,40h40v40H40V40z M100,120c11,0,20-9,20-20V80h50v90H80
	v-50H100z M80,472H40v-40h40V472z M100,392H80v-50h90v90h-50v-20C120,401,111,392,100,392z M302,432h-92v-90h92V432z M342,210h90v92
	h-90V210z"/>
</svg>
