<?xml version="1.0" encoding="utf-8"?>
<!-- Generator: Adobe Illustrator 21.1.0, SVG Export Plug-In . SVG Version: 6.00 Build 0)  -->
<svg version="1.1" id="Layer_1" xmlns="http://www.w3.org/2000/svg" xmlns:xlink="http://www.w3.org/1999/xlink" x="0px" y="0px"
	 viewBox="0 0 512 512" style="enable-background:new 0 0 512 512;" xml:space="preserve">
<style type="text/css">
	.st0{fill:#000063;}
</style>
<path class="st0" d="M237.8,373.9c0.5,10.6,8.2,19,18.9,19c10.7,0,20.4-8.4,21-19c17.2-4,30-19.4,30-37.8v-24.7
	c0-13.2,7.5-25.8,16.2-40.4c11-18.5,23.5-39.4,23.8-67.2c0-0.2,0-0.3,0-0.5v-0.5c0-0.2,0-0.3,0-0.5c-0.5-47.5-36.6-79.3-90.1-79.3
	c-24.8,0-46.6,6.8-63,19.6c-18.3,14.3-28.6,35.4-28.8,59.7c0,0.2,0,0.3,0,0.5v0.5c0,0.2,0,0.4,0,0.6c0.4,25.3,12.9,45.9,24.1,64.1
	c9.2,15.1,17.9,29.4,17.9,43.4v24.7C207.8,354.5,220.6,370,237.8,373.9z M267.8,314.9v20h-20v-20H267.8z M205.8,203
	c0.2-29.5,26.9-40,51.9-40c15,0,49.9,3.9,50.1,40c-0.1,17.2-8.5,31.2-18.1,47.5c-4.5,7.6-9.4,15.7-13.3,24.4h-37
	c-4.4-9.9-10-19.1-15.3-27.8C214.7,231.9,205.9,217.5,205.8,203z M479.2,313.8c8.6,12.2,16.8,29.9,16.8,52.8c0,11-8.9,20-20,20
	c-11,0-20-9-20-20c0-16.4-7.4-28-13.1-34.5c-7.1,1.8-14.5,2.7-22.1,2.7c-11,0-20-8.9-20-20c0-11,9-20,20-20
	c28.6,0,51.9-23.3,51.9-51.9c0-25.3-18.8-47.4-43.8-51.2l-19.6-3c-7.7-1.2-14-6.7-16.2-14.1c-2.2-7.4,0.1-15.5,6-20.6
	c5.3-4.7,8.3-11.2,8.4-18.3c0.1-6.4-2.5-12.5-7.2-17.3c-5-5-11.8-7.9-18.7-7.9h-3.9c-21.2,0-38.5-17.3-38.5-38.5v-0.1
	c0-17.6-14-31.8-31.2-31.8c-16.7,0-29.9,12.4-31.1,28.6c0,0.8,0.1,1.6,0.1,2.4c0,11-8.9,20-20,20c0,0-0.1,0-0.1,0c0,0-0.1,0-0.1,0
	c-11,0-20-9-20-20c0-0.8,0-1.6,0.1-2.4C235.6,52.4,222.4,40,205.7,40c-17.2,0-31.2,14.3-31.2,31.8v0.1c0,21.2-17.3,38.5-38.5,38.5
	h-3.9c-6.9,0-13.7,2.9-18.7,7.9c-4.7,4.8-7.3,10.9-7.2,17.3c0.1,7.1,3.1,13.6,8.4,18.3c5.8,5.1,8.1,13.2,5.9,20.6
	c-2.2,7.4-8.5,13-16.2,14.1l-19.7,3C59.8,195.6,41,217.6,41,242.9c0,28.6,23.3,51.9,51.9,51.9c11,0,20,8.9,20,20s-8.9,20-20,20
	c-7.6,0-15-0.9-22.1-2.7c-5.7,6.5-13.1,18.1-13.1,34.5c0,23.3,19,42.3,42.3,42.3h1.8c23.7,0,44.9,14.3,53.9,36.4
	c6.6,16.2,21.9,26.7,39.1,26.7c25,0,39.4-18.6,43-23.9v-4.3c0-11,9-20,20-20c11,0,20,8.9,20,20v5.8c8,8.8,24,22.3,41.2,22.3
	c17.1,0,32.5-10.5,39.1-26.7c9-22.1,30.1-36.4,53.9-36.4h1.8c11,0,20,8.9,20,20s-8.9,20-20,20h-1.8c-7.4,0-14,4.5-16.8,11.5
	c-12.8,31.4-42.6,51.6-76.1,51.6c-26.3,0-47.6-14-61.2-26.1c-12.8,12.3-33.7,26.1-63,26.1c-33.5,0-63.4-20.3-76.1-51.6
	c-2.8-7-9.5-11.5-16.9-11.5H100c-45.4,0-82.3-36.9-82.3-82.3c0-22.9,8.1-40.5,16.8-52.8C14.1,297,1,271.4,1,242.9
	c0-22.1,7.9-43.4,22.3-60c12.1-14,28.1-24,45.7-28.7c-1.8-5.8-2.7-11.9-2.8-18.1C66,119,72.7,102.7,85,90.2
	c12.4-12.6,29.6-19.8,47.2-19.8h2.4c0.7-39,32.4-70.4,71.2-70.4c19,0,36.9,7.3,50.3,20.6c0.3,0.3,0.6,0.6,0.8,0.9
	c0.3-0.3,0.5-0.6,0.8-0.9C271.1,7.3,288.9,0,307.9,0c38.8,0,70.4,31.5,71.2,70.4h2.4c17.6,0,34.7,7.2,47.2,19.8
	c12.3,12.4,18.9,28.8,18.7,45.9c-0.1,6.2-1.1,12.3-2.8,18.1c17.7,4.7,33.7,14.7,45.7,28.7c14.4,16.7,22.3,38,22.3,60
	C512.7,271.4,499.6,297,479.2,313.8z"/>
</svg>
