<?xml version="1.0" encoding="utf-8"?>
<!-- Generator: Adobe Illustrator 21.1.0, SVG Export Plug-In . SVG Version: 6.00 Build 0)  -->
<svg version="1.1" id="Layer_1" xmlns="http://www.w3.org/2000/svg" xmlns:xlink="http://www.w3.org/1999/xlink" x="0px" y="0px"
	 viewBox="0 0 512 512" style="enable-background:new 0 0 512 512;" xml:space="preserve">
<style type="text/css">
	.st0{fill:#000063;}
</style>
<path class="st0" d="M512,255c0,19.3-15.7,35-35,35s-35-15.7-35-35c0-10.6,4.7-20.2,12.2-26.6C442.4,139.6,372,69,283.3,56.9
	c-6.4,8-16.3,13.1-27.3,13.1s-20.9-5.1-27.3-13.1C140,69,69.6,139.6,57.8,228.4C65.3,234.8,70,244.4,70,255c0,19.3-15.7,35-35,35
	S0,274.3,0,255c0-13.1,7.2-24.6,17.9-30.6c6.6-52.5,30.3-101.1,68.4-139.2c11.4-11.4,23.8-21.5,36.9-30.3H63.7
	C57.4,64.1,46.9,70,35,70C15.7,70,0,54.3,0,35S15.7,0,35,0c11.9,0,22.4,5.9,28.7,15h163.6c6.3-9.1,16.8-15,28.7-15s22.4,5.9,28.7,15
	h163.6c6.3-9.1,16.8-15,28.7-15c19.3,0,35,15.7,35,35s-15.7,35-35,35c-11.9,0-22.4-5.9-28.7-15h-59.5c13.1,8.8,25.5,18.9,36.9,30.3
	c38,38.1,61.7,86.6,68.4,139.2C504.8,230.4,512,241.9,512,255z M357.7,268.5c13.1,24.5,12.3,54.4-2.2,78.1
	c-5.8,9.4-18.1,12.4-27.5,6.6c-9.4-5.8-12.4-18.1-6.6-27.5c7.1-11.6,7.5-26.3,1.1-38.3l-48.4-89l0,77.2c5.5,10.9,10,21.7,10,28.1
	c0,16.6-13.4,30-30,30s-30-13.4-30-30c0-6.4,4.5-17.3,10-28.1l0-72.8l-46.4,85.2c-6.4,12-6,26.6,1,38.2l39.5,63H295c11,0,20,9,20,20
	l0,55.3c0,25.7-20.9,46.6-46.6,46.6l-26.8,0c0,0,0,0-0.1,0c-12.4,0-24.1-4.8-32.9-13.6c-8.8-8.8-13.7-20.5-13.7-32.9l0-52.9
	l-40.4-64.4c0-0.1-0.1-0.1-0.1-0.2c-14.5-23.7-15.3-53.6-2.2-78.1c0,0,0-0.1,0.1-0.1l85.3-156.4c3.5-6.4,10.2-10.4,17.6-10.4h0
	c7.3,0,14.1,4,17.6,10.4l84.8,155.9C357.6,268.4,357.7,268.4,357.7,268.5z M275,429h-40l0,35.4c0,2.4,1.2,3.9,1.9,4.7
	c0.7,0.7,2.3,1.9,4.7,1.9h0l26.8,0c3.6,0,6.6-3,6.6-6.6L275,429z"/>
</svg>
