<?xml version="1.0" encoding="utf-8"?>
<!-- Generator: Adobe Illustrator 21.1.0, SVG Export Plug-In . SVG Version: 6.00 Build 0)  -->
<svg version="1.1" id="Layer_1" xmlns="http://www.w3.org/2000/svg" xmlns:xlink="http://www.w3.org/1999/xlink" x="0px" y="0px"
	 viewBox="0 0 512 512" style="enable-background:new 0 0 512 512;" xml:space="preserve">
<style type="text/css">
	.st0{fill:#000063;}
</style>
<path class="st0" d="M256.5,217.6c21.5,0,38.9,17.4,38.9,38.9s-17.4,38.9-38.9,38.9s-38.9-17.4-38.9-38.9S235,217.6,256.5,217.6z
	 M256.5,142.7c62.7,0,113.8,51,113.8,113.8s-51,113.8-113.8,113.8c-62.7,0-113.8-51-113.8-113.8S193.8,142.7,256.5,142.7z
	 M256.5,182.6c-40.7,0-73.9,33.1-73.9,73.9s33.1,73.9,73.9,73.9s73.9-33.1,73.9-73.9S297.2,182.6,256.5,182.6z M103.2,392.4
	c48.5,34.5,101.3,52.7,152.7,52.7c66,0,131.5-27.4,184.6-77.2c8-7.5,8.4-20.2,0.9-28.2s-20.2-8.4-28.2-0.9
	c-26.4,24.8-82,66.4-157.3,66.4c-99.5,0-178.5-79.7-209.5-126.8c-8.8-13.3-8.8-30.5,0-43.8c31-47.1,109.9-126.8,209.5-126.8
	c99.5,0,178,79.8,208.7,126.9c8.6,13.2,8.6,30.3,0,43.6c-6,9.2-3.4,21.6,5.8,27.6c9.2,6,21.6,3.4,27.6-5.8
	c17.2-26.5,17.2-60.7,0-87.1c-10.3-15.9-39.7-56.6-89.5-92.2c-48.3-34.6-101.1-52.9-152.6-52.9c-51.4,0-104.3,18.2-152.7,52.7
	c-50,35.6-79.7,76.2-90.1,92.1c-17.5,26.6-17.5,61.1,0,87.7C23.6,316.2,53.2,356.8,103.2,392.4z M492,390.2c-11,0-20,8.9-20,20v40.9
	c0,11.6-9.4,21-21,21h-40.9c-11,0-20,8.9-20,20s8.9,20,20,20h40.9c33.6,0,60.9-27.3,60.9-60.9v-40.9
	C512,399.2,503.1,390.2,492,390.2z M494.4,19.5C482.8,7.6,467.4,1,451.1,1h-40.9c-11,0-20,8.9-20,20s8.9,20,20,20h40.9
	c11.4,0,21,10.1,21,22v39.9c0,11,8.9,20,20,20c11,0,20-8.9,20-20V62.9C512,46.7,505.7,31.3,494.4,19.5z M103.8,472.1H61.9
	c-11.6,0-21-9.4-21-21v-39.9c0-11-8.9-20-20-20s-20,8.9-20,20v39.9C1,484.7,28.3,512,61.9,512h41.9c11,0,20-8.9,20-20
	S114.8,472.1,103.8,472.1z M21,123.8c11,0,20-8.9,20-20V62.9c0-11.9,9.6-22,21-22h40.9c11,0,20-8.9,20-20s-8.9-20-20-20H61.9
	C45.6,1,30.2,7.6,18.6,19.5C7.3,31.3,1,46.7,1,62.9v40.9C1,114.8,10,123.8,21,123.8z M180.7,40.9c11,0,20-8.9,20-20s-8.9-20-20-20
	s-20,8.9-20,20S169.6,40.9,180.7,40.9z M333.4,40.9c11,0,20-8.9,20-20s-8.9-20-20-20s-20,8.9-20,20S322.3,40.9,333.4,40.9z
	 M257.5,40.9c11,0,20-8.9,20-20s-8.9-20-20-20s-20,8.9-20,20S246.5,40.9,257.5,40.9z M180.7,472.1c-11,0-20,8.9-20,20s8.9,20,20,20
	s20-8.9,20-20S191.7,472.1,180.7,472.1z M333.4,472.1c-11,0-20,8.9-20,20s8.9,20,20,20s20-8.9,20-20S344.4,472.1,333.4,472.1z
	 M257.5,472.1c-11,0-20,8.9-20,20s8.9,20,20,20s20-8.9,20-20S268.5,472.1,257.5,472.1z"/>
</svg>
